# xmcd CD database file
#
# Track frame offsets:
#	150
#	33850
#	50993
#	78668
#	99305
#	118003
#	185878
#	198683
#	229525
#	245734
#	258767
#	268900
#	278883
#	291558
#
# Disc length: 4287 seconds
#
# Revision: 1
# Processed by: cddbd v1.5.1PL0 Copyright (c) Steve Scherf et al.
# Submitted via: CDex 1.51
#
DISCID=dc10bd0e
DTITLE=Duke Ellington - Caravan
DYEAR=1900
DGENRE=Jazz
TTITLE0=Skin Deep
TTITLE1=Sultry Serenade
TTITLE2=Sophisticated Lady
TTITLE3=Perdido
TTITLE4=Caravan
TTITLE5=Harlem Suite
TTITLE6=The Hawk Talks
TTITLE7=Ellington Medley
TTITLE8=Jam With Sam
TTITLE9=Things Ain't What They Used To Be
TTITLE10=Dancer In Love
TTITLE11=Koko
TTITLE12=Cotton Tail
TTITLE13=The Mooche
EXTD=
EXTT0=
EXTT1=
EXTT2=
EXTT3=
EXTT4=
EXTT5=
EXTT6=
EXTT7=
EXTT8=
EXTT9=
EXTT10=
EXTT11=
EXTT12=
EXTT13=
PLAYORDER=
